# xmcd
#
# Track frame offsets:
# 150
# 14843
# 26288
# 36758
# 49669
# 63804
# 79902
# 95048
# 111484
# 128959
# 143082
# 155874
# 170894
# 182691
# 193501
# 206644
# 221053
# 237426
# 252708
# 269342
# 286824
# 301166
#
# Disc length: 4189 seconds
#
#
# Revision: 0
# Processed by: cddbd v1.5.1PL0 Copyright (c) Steve Scherf et al.
# Submitted via: FreeRIP 2.92 
#
DISCID=51105b16
DTITLE=Steve Baker - Blues Harmonica Play-Alongs, Vol. 1
DYEAR=1900
DGENRE=Blues
TTITLE0=Session Shuffle
TTITLE1=Poor Boy Boogie
TTITLE2=Rainy Day Blues
TTITLE3=Funky Mardi Gras
TTITLE4=Straight Harp Shuffle
TTITLE5=Off The Top
TTITLE6=Doublecrossed and Blue
TTITLE7=Worried Mind
TTITLE8=Stomping
TTITLE9=Ready To Go
TTITLE10=Gimme a Break
TTITLE11=Session Shuffle-2
TTITLE12=Poor Boy Boogie-2
TTITLE13=Rainy Day Blues-2
TTITLE14=Funky Mardi Gras-2
TTITLE15=Straight Harp Shuffle-2
TTITLE16=Off The Top -2
TTITLE17=Doublecrossed and Blue-2
TTITLE18=Worried Mind-2
TTITLE19=Stomping-2
TTITLE20=Ready To Go-2
TTITLE21=Gimme a Break -2
EXTD=
EXTT0=
EXTT1=
EXTT2=
EXTT3=
EXTT4=
EXTT5=
EXTT6=
EXTT7=
EXTT8=
EXTT9=
EXTT10=
EXTT11=
EXTT12=
EXTT13=
EXTT14=
EXTT15=
EXTT16=
EXTT17=
EXTT18=
EXTT19=
EXTT20=
EXTT21=
PLAYORDER=
